
<svg version="1.2" xmlns="http://www.w3.org/2000/svg" viewBox="0 0 300 150" width="300" height="150"><style>.a{paint-order:stroke fill markers;stroke:#000;stroke-width: 6;stroke-linejoin: round;;fill:#78ff44}.b{paint-order:stroke fill markers;stroke:#000;stroke-width: 6;stroke-linejoin: round;;fill:#f53131}.c{paint-order:stroke fill markers;stroke:#000;stroke-width: 6;stroke-linejoin: round;;fill:#29cdff}.d{paint-order:stroke fill markers;stroke:#000;stroke-width: 6;stroke-linejoin: round;;fill:#a864fd}.e{paint-order:stroke fill markers;stroke:#000;stroke-width: 6;stroke-linejoin: round;;fill:#fdff6a}.f{paint-order:stroke fill markers;stroke:#000;stroke-width: 6;stroke-linejoin: round;;fill:#ff718d}</style><path class="a" d="m87 32.9h-5.8l-7.2 4.6v5.4l6.7-4.2h0.2v23.3h6.1zm127.3 29.7c7.3 0 11.7-5.5 11.7-15.1 0-9.5-4.4-15-11.7-15-7.3 0-11.7 5.4-11.8 15 0 9.5 4.5 15.1 11.8 15.1zm0-5.1c-3.4 0-5.5-3.3-5.5-10 0-6.6 2.2-10 5.5-10 3.3 0 5.5 3.4 5.5 10 0 6.7-2.2 10-5.5 10z"/><path class="b" d=""/><path class="c" d="m103.3 62h6v-21.8h-6zm3-24.6c1.8 0 3.3-1.4 3.3-3.1 0-1.7-1.5-3.1-3.3-3.1-1.8 0-3.3 1.4-3.3 3.1 0 1.7 1.5 3.1 3.3 3.1z"/><path class="d" d="m120.2 49.4c0-2.8 1.7-4.5 4.1-4.5 2.5 0 3.9 1.6 3.9 4.3v12.8h6.1v-13.9c0-5.1-3-8.2-7.6-8.2-3.2 0-5.6 1.6-6.5 4.1h-0.3v-3.8h-5.8v21.8h6.1z"/><path class="e" d="m147.8 56.9h14v5.1h5.8v-5.1h3.6v-4.9h-3.6v-19.1h-7.7l-12.1 19.1zm14.1-4.9h-7.9v-0.2l7.6-12.1h0.3z"/><path class="f" d="m186.8 62.6c7.3 0 11.7-5.5 11.7-15.1 0-9.5-4.5-15-11.7-15-7.3 0-11.8 5.5-11.8 15 0 9.5 4.4 15.1 11.8 15.1zm0-5.1c-3.4 0-5.5-3.3-5.5-10 0-6.6 2.1-9.9 5.5-9.9 3.3 0 5.4 3.3 5.4 9.9 0 6.7-2.1 10-5.4 10z"/><path class="e" d="m82.7 94.4c-1.1-8.7-7.7-13.7-16.5-13.7-10 0-17.6 7-17.6 19.4 0 12.3 7.5 19.4 17.6 19.4 9.7 0 15.6-6.4 16.5-13.4h-8.1c-0.8 4-4 6.3-8.2 6.3-5.8 0-9.7-4.2-9.7-12.3 0-7.9 3.9-12.4 9.7-12.4 4.4 0 7.6 2.6 8.2 6.7zm135-3.8h-5.3v-6.8h-7.9v6.8h-3.9v5.9h3.9v14.8c0 5.6 3.8 8.3 9.5 8.1 2-0.1 3.4-0.5 4.2-0.8l-1.2-5.8c-0.4 0.1-1.2 0.3-2 0.3-1.5 0-2.6-0.6-2.6-2.8v-13.8h5.3z"/><path class="f" d="m101.1 119.6c8.6 0 13.9-5.9 13.9-14.7 0-8.8-5.3-14.6-13.9-14.6-8.6 0-14 5.8-14 14.6 0 8.8 5.4 14.7 14 14.7zm0-6.1c-4 0-6-3.7-6-8.6 0-5 2-8.6 6-8.6 3.9 0 5.9 3.6 5.9 8.6 0 4.9-2 8.6-5.9 8.6zm136.8-22.9h-5.3v-6.8h-7.9v6.8h-3.9v5.9h3.9v14.8c0 5.6 3.8 8.3 9.5 8.1 2-0.1 3.4-0.5 4.2-0.8l-1.2-5.8c-0.4 0.1-1.2 0.3-2 0.3-1.5 0-2.6-0.6-2.6-2.8v-13.8h5.3z"/><path class="a" d="m128 102.6c0-3.7 2.2-5.8 5.4-5.8 3.2 0 5.1 2.1 5 5.5v16.7h7.9v-18.1c0-6.6-3.9-10.6-9.8-10.6-4.2 0-7.2 2-8.5 5.3h-0.3v-5h-7.5v28.4h7.8zm115 16.4h7.9v-28.4h-7.9zm4-32c2.3 0 4.2-1.8 4.2-4 0-2.2-1.9-3.9-4.2-3.9-2.3 0-4.3 1.7-4.3 3.9 0 2.2 2 4 4.3 4z"/><path class="c" d="m167.7 90.6h-5.6v-1.9c0-1.9 0.8-3 3.1-3 0.9 0 1.9 0.2 2.5 0.4l1.4-5.9c-1-0.3-3.1-0.8-5.5-0.8-5.4 0-9.4 3-9.4 9.2v2h-4v5.9h4v22.5h7.9v-22.5h5.6z"/><path class="d" d="m184.5 119.6c7 0 11.7-3.5 12.8-8.7l-7.2-0.5c-0.8 2.2-2.9 3.3-5.5 3.3-3.9 0-6.4-2.6-6.4-6.9h19.3v-2.1c0-9.7-5.8-14.4-13.3-14.4-8.4 0-13.8 5.9-13.8 14.6 0 9 5.3 14.7 14.1 14.7zm-6.3-17.6c0.1-3.3 2.6-5.9 6.1-5.9 3.4 0 5.8 2.5 5.8 5.9z"/></svg>
